<?xml version="1.0" standalone="no"?>
<!DOCTYPE svg PUBLIC "-//W3C//DTD SVG 20010904//EN"
 "http://www.w3.org/TR/2001/REC-SVG-20010904/DTD/svg10.dtd">
<svg version="1.0" xmlns="http://www.w3.org/2000/svg"
 width="112.000000pt" height="136.000000pt" viewBox="0 0 112.000000 136.000000"
 preserveAspectRatio="xMidYMid meet">

<g transform="translate(0.000000,136.000000) scale(0.100000,-0.100000)"
fill="#000000" stroke="none">
<path d="M118 1212 c-4 -16 0 -23 16 -28 11 -4 32 -15 45 -25 13 -11 34 -19
47 -19 36 0 68 -69 67 -145 -1 -65 11 -97 52 -135 33 -30 50 -60 35 -60 -5 0
-10 6 -10 14 0 7 -7 19 -15 26 -13 11 -15 7 -15 -24 0 -33 3 -36 28 -36 19 0
33 -9 50 -33 12 -18 22 -40 22 -49 0 -22 52 -76 58 -60 2 7 -3 21 -11 30 -16
19 -41 67 -51 98 -5 16 0 23 19 32 14 6 25 16 25 22 0 14 -33 13 -48 -2 -9 -9
-12 -9 -12 4 0 11 14 17 48 21 26 3 54 7 62 9 10 2 25 -18 43 -57 25 -52 28
-64 18 -94 -7 -23 -7 -40 0 -53 18 -34 26 -7 31 105 1 22 5 27 17 21 9 -3 35
-13 57 -21 23 -8 60 -30 83 -49 30 -26 48 -34 68 -32 28 3 28 3 -10 22 -20 10
-48 31 -60 46 -13 15 -33 31 -44 34 -35 11 -43 30 -37 79 8 53 8 53 100 -5 33
-21 84 -47 112 -59 l51 -21 48 23 48 23 -54 8 c-29 5 -81 20 -115 34 -33 14
-86 32 -116 41 -31 8 -68 27 -85 43 -40 38 -78 51 -125 44 -22 -4 -56 -3 -77
1 -32 6 -35 8 -19 17 16 9 16 11 1 28 -17 18 -5 38 15 25 20 -13 9 13 -12 29
-23 17 -23 17 9 13 26 -3 30 -1 22 10 -7 7 -19 13 -28 13 -13 1 -13 3 3 15 20
15 20 15 0 15 -10 0 -40 11 -66 25 -25 13 -61 26 -80 27 -18 1 -36 6 -39 11
-3 5 -42 11 -86 14 -75 5 -80 4 -85 -15z m264 -87 c11 -21 10 -20 -37 35 l-30
35 28 -25 c16 -14 33 -34 39 -45z"/>
<path d="M63 503 l-23 -4 0 -225 c0 -136 4 -233 10 -245 10 -18 27 -19 513
-19 378 0 506 3 515 12 9 9 12 77 12 244 0 202 -2 233 -16 238 -17 7 -976 6
-1011 -1z m253 -211 l41 -112 -27 0 c-21 0 -29 6 -34 25 -6 22 -12 25 -50 25
-36 0 -45 -4 -54 -25 -12 -26 -52 -35 -52 -12 0 6 16 54 35 106 19 51 32 98
29 103 -4 5 10 8 32 6 l38 -3 42 -113z m386 3 l3 -115 -27 0 -27 0 -3 115 -3
115 27 0 27 0 3 -115z m-230 24 c15 -8 19 -8 14 0 -5 7 2 11 18 11 l26 0 0
-94 c0 -102 -8 -120 -56 -132 -48 -12 -119 25 -95 49 8 8 20 6 40 -6 35 -21
36 -21 55 -1 26 25 19 32 -24 27 -55 -8 -80 15 -80 74 0 68 47 101 102 72z
m148 -64 c0 -73 -1 -75 -24 -75 -23 0 -25 3 -28 75 l-3 75 28 0 27 0 0 -75z"/>
<path d="M231 317 c-16 -41 -14 -47 15 -47 22 0 24 3 18 23 -14 48 -22 54 -33
24z"/>
<path d="M420 275 c-15 -18 -6 -61 15 -69 37 -14 65 26 45 64 -13 24 -42 26
-60 5z"/>
</g>
</svg>
